<?xml version="1.0" encoding="utf-8"?>
<!-- Generator: Adobe Illustrator 19.1.0, SVG Export Plug-In . SVG Version: 6.00 Build 0)  -->
<svg version="1.0" id="Layer_1" xmlns="http://www.w3.org/2000/svg" xmlns:xlink="http://www.w3.org/1999/xlink" x="0px" y="0px"
	 viewBox="0 0 1200 410" enable-background="new 0 0 1200 410" xml:space="preserve">
<path fill="#30ABE9" d="M321.9,89.6c-0.3-0.1-0.6-0.2-0.8-0.2l-0.1,0c-1.3-0.3-2.5-0.6-3.7-0.9c0,0,0,0,0,0l-0.1,0l0,0l-0.3-0.1
	l-0.6-0.1l0,0l0,0l0,0l-0.1,0l0,0l0,0l0,0l-0.1,0l0,0l0,0l-0.5-0.1l0,0c-10.4-2.4-21.1-4.4-31.8-5.7c-11.1-1.4-22.5-2.3-33.8-2.5
	c-2.2,0-4.5-0.1-6.7-0.1c-7.1,0-14.2,0.2-21.2,0.7l-0.5,0l0.1,0.5c1.1,9.2-1.8,18.4-8,25.3c-5.4,6-13.1,9.8-21.1,10.4
	c-0.8,0.1-1.6,0.1-2.5,0.1c-8,0-15.7-3-21.6-8.4c-4.8-4.4-8.3-10.4-9.7-16.7l-0.1-0.5l-0.4,0.1c-10.6,3-21.2,6.5-31.5,10.6
	c-10,4-19.9,8.5-29.4,13.5c-4.8,2.5-9.5,5.1-14.1,7.8c-2.4,1.4-4.9,2.9-7.3,4.4c-0.1,0-0.2,0.1-0.4,0.2c-0.5,0.3-1.2,0.8-1.9,1.2
	c-1.3,0.8-1.5,0.9-1.3,1.3l27.3,60l0.2,0.4l0.4-0.2c9.8-5.7,20-10.9,30.3-15.5c0.7-0.3,1.3-0.6,2-0.9l21.4,89.2l0.1,0.6l0.5-0.3
	c5.7-3.1,10.4-5.4,15-7.3c5.7-2.3,11-4.2,16.1-5.6c9.5-2.7,19.2-4,29.1-4c1.5,0,3.1,0,4.6,0.1c4.7,0.2,10.7,0.7,16.3,2.9
	c2.6,1,4.6,2.2,6.1,3.7c1.7,1.7,2.6,4,2.5,6.5c0,5.2-4.1,9.4-7.4,12.1c-2.2,1.7-4.6,3.1-6.4,4.1c-2.3,1.3-4.8,2.4-7.3,3.4
	c-4.9,2-10.1,3.5-16,4.7c-5.8,1.2-11.5,1.9-16.9,2.1c-0.5,0-1,0-1.6,0c-0.7,0-1.3,0-2,0l-0.5,0c-1.4,0-2.8-0.1-4.2-0.3
	c-1.5-0.2-2.7-0.3-4-0.7l-0.1,0c-1.3-0.3-1.7-0.6-1.9-0.7c0.6-0.9,1.6-1.6,2.5-2.2c1-0.6,2.1-1.3,3.4-1.9c2.2-1.1,4.7-2.1,7.7-3
	c5.1-1.6,10.6-2.7,16.5-3.2c2.8-0.3,5.6-0.4,8.4-0.4c0.3,0,0.7,0,1,0c0.9,0,2.1,0,3.2,0.1c0.2,0,0.5,0,0.7,0.1
	c0.4,0,0.8,0.1,1.2,0.1l0.1,0l0.1,0c3-1,13.1-4.9,15.9-11.4l0.2-0.4l-0.4-0.2c-0.1-0.1-0.3-0.1-0.5-0.2c-0.1,0-0.1,0-0.2-0.1
	c-1.1-0.3-2.5-0.8-4-1.1c-2.6-0.6-5.4-1.1-8.4-1.5c-3.1-0.4-6.3-0.5-9.5-0.5c-2.6,0-5.2,0.1-7.8,0.4c-6.3,0.6-11.8,1.5-16.7,2.8
	c-6,1.5-11.1,3.4-15.5,5.8c-5.5,2.9-9.3,6.4-11.5,10.4c-2.4,4.4-2.5,9.6-0.3,13.7c2.1,4,6.3,6.8,12.3,8.4c4,1,8.5,1.6,13.7,1.6
	c0.9,0,1.9,0,2.9,0c5.4-0.2,11.1-0.8,16.9-1.9c5.6-1.1,11.1-2.5,16.3-4.3c5.7-2,10.7-4.2,15.1-6.7c0.7-0.4,1.2-0.7,1.7-1l1.3-0.8
	c0,0.2,0,0.4,0,0.6c0,0.6,0,1.1-0.2,1.8c-0.4,2.3-1.3,4.5-2.9,6.6c-2.5,3.4-6.3,6.3-11.6,9c-4.4,2.2-9.4,4.1-15.2,5.8
	c-5.3,1.5-10.9,2.7-16.4,3.5c-1.2,0.2-2.4,0.3-3.5,0.5l-0.7,0.1c-0.3,0-0.7,0.1-1,0.1c-0.3,0-0.8,0.1-0.8,0.1l-0.4,0l0,0.4l0.8,14.4
	l0,0.5l0.5,0l2.3-0.2c2.7-0.3,5.6-0.7,8.5-1.2c12.6-2.2,23-5.4,31.8-9.7c11.4-5.7,18.9-13,22.2-21.7c2-5.4,2.5-11.4,1.3-16.7
	c-0.3-1.3-0.7-2.6-1.2-3.8c-0.1-0.2-0.2-0.4-0.3-0.7c-0.2-0.3-0.4-0.7-0.4-1c-0.1-0.2,0.2-0.7,0.5-1c0.1-0.1,0.2-0.3,0.3-0.4
	c1.4-2.3,2.5-4.8,3.2-7.5c1.3-5.2,1-10.8-0.8-15.6c-1.8-4.7-5.2-8.8-9.9-11.8c-4.2-2.7-9.2-4.7-15.4-6c-5.2-1.1-10.7-1.6-16.9-1.6
	c-11.7,0-23.2,1.5-34,4.6c-5.6,1.6-11.4,3.6-18.4,6.4l-20.9-86.8l-0.1-0.5l-0.5,0.2c-10.6,4-21.1,8.5-31.3,13.6
	c-1.5,0.7-2.9,1.5-4.4,2.2l-16.3-35.7c0.3-0.2,0.7-0.4,1.4-0.8c0.1-0.1,0.2-0.1,0.2-0.1c4.7-2.7,9.5-5.3,14.3-7.8
	c9.6-4.9,19.5-9.3,29.6-13.2c4.9-1.9,9.9-3.6,14.9-5.3c2.1,3.6,4.7,6.8,7.7,9.7c6.3,6,14.1,10.1,22.6,11.9c3,0.6,6,0.9,9.1,0.9
	c5.6,0,11-1,16.1-2.9c7.5-2.8,14.2-7.6,19.3-13.8c2.6-3.1,4.7-6.5,6.4-10.1c0.8-1.8,1.6-3.7,2.2-5.7c0.3-1,0.6-2,0.8-3
	c0.1-0.5,0.2-1,0.3-1.4c0,0,0,0,0,0l0.2,0c0.4,0,0.8,0,1.2,0c2.3-0.1,4.6-0.1,6.9-0.1c9.1,0,18.3,0.4,27.3,1.2
	c11.3,1,22.6,2.7,33.7,4.9l0.2,0c1,0.2,1.6,0.3,1.9,0.4l-7.9,38.7c-0.9-0.1-3.2-0.4-4.9-0.7c-1.2-0.2-2.1-0.3-2.4-0.3
	c-2.8-0.4-5.7-0.7-8.6-0.9c-5.7-0.6-11.5-1-17.3-1.2c-2.9-0.1-5.8-0.2-8.7-0.2c-0.1,0-0.7,0-0.7,0l-0.4,0l0,0.4l-3.6,85.5
	c0,0.2,0.1,0.5,0.5,0.6c0,0,0,0,0.1,0c1.2,0.6,2.4,1.2,3.6,1.8c2.5,1.4,4.7,3,6.5,4.7c0.5,0.4,0.9,0.9,1.3,1.3
	c0.2,0.2,0.4,0.5,0.6,0.7c0.1,0.1,0.2,0.3,0.3,0.4l0.7,1.4l0.1-1.6l3.8-80.9c11.2,0.6,22.2,1.9,33.6,3.8c1.4,0.2,2.8,0.5,4.3,0.8
	l0.5,0.1c1.4,0.3,1.4,0.3,1.4,0.3h0.4l0.1-0.4l13.1-64.5C322.9,89.8,322.5,89.7,321.9,89.6z"/>
<g>
	<path fill="#30ABE9" d="M343.4,246v-53h-15.2v-17.3h15.2v-25.1h20v25.1H382V193h-18.6v48.1c0,6.3,3,11,8.7,11
		c3.8,0,7.2-1.7,8.7-3.4l4.8,15.2c-3.6,3.2-9.5,5.9-18.6,5.9C351.4,269.8,343.4,261.4,343.4,246z"/>
	<path fill="#30ABE9" d="M394.3,221.5c0-26.6,19.4-48.1,46.6-48.1c27.5,0,45,20.9,45,49.8v4.9h-70.7c1.5,13.7,11.8,25.3,29.1,25.3
		c9.1,0,19.6-3.6,26.2-10.3l9.1,13.1c-9.3,8.7-22.8,13.5-37.2,13.5C414.6,269.8,394.3,250.6,394.3,221.5z M440.7,189.8
		c-16.9,0-24.9,13.1-25.7,24.1h51.7C466.1,203.1,458.7,189.8,440.7,189.8z"/>
	<path fill="#30ABE9" d="M500.1,221.5c0-26.6,19.4-48.1,46.6-48.1c27.5,0,45,20.9,45,49.8v4.9H521c1.5,13.7,11.8,25.3,29.1,25.3
		c9.1,0,19.6-3.6,26.2-10.3l9.1,13.1c-9.3,8.7-22.8,13.5-37.2,13.5C520.5,269.8,500.1,250.6,500.1,221.5z M546.5,189.8
		c-16.9,0-24.9,13.1-25.7,24.1h51.7C572,203.1,564.5,189.8,546.5,189.8z"/>
	<path fill="#30ABE9" d="M603.7,255.3l9.1-14.2c6.5,6.6,19.2,12.7,31,12.7c12,0,18.2-4.9,18.2-12.2c0-18.1-55.5-5.1-55.5-40.5
		c0-15,12.9-27.7,36.1-27.7c15.6,0,27.4,5.5,35.5,12.7l-8.4,14.1c-5.5-6.1-15.6-11-27.2-11c-10.4,0-16.9,4.9-16.9,11.4
		c0,16.2,55.5,4,55.5,40.5c0,16.3-13.5,28.7-38.2,28.7C627.2,269.8,613.2,264.6,603.7,255.3z"/>
	<path fill="#30ABE9" d="M721.1,254.8v47.7h-20V175.7h20v12.5c6.8-9.1,17.5-14.8,29.5-14.8c23.8,0,40.7,17.9,40.7,48.1
		s-16.9,48.3-40.7,48.3C739,269.8,728.7,264.5,721.1,254.8z M770.7,221.5c0-17.9-10.3-30.4-26-30.4c-9.3,0-19,5.3-23.6,12.2v36.3
		c4.4,6.8,14.3,12.5,23.6,12.5C760.4,252.1,770.7,239.4,770.7,221.5z"/>
	<path fill="#30ABE9" d="M811.2,267.5v-91.8h20V189c7-8.7,18.1-15.6,29.8-15.6v19.8c-1.7-0.4-3.6-0.6-6.1-0.6
		c-8.6,0-19.8,5.7-23.8,12.4v62.5H811.2z"/>
	<path fill="#30ABE9" d="M874.8,152.2c0-6.8,5.5-12.4,12.3-12.4s12.4,5.5,12.4,12.4c0,6.8-5.5,12.4-12.4,12.4S874.8,159,874.8,152.2
		z M877.1,267.5v-91.8h20v91.8H877.1z"/>
	<path fill="#30ABE9" d="M985,267.5v-57.4c0-14.4-7.4-19-18.6-19c-10.1,0-18.8,6.1-23.6,12.2v64.2h-20v-91.8h20v12.4
		c6.1-7.2,18.1-14.6,32.5-14.6c19.8,0,29.6,10.6,29.6,29.5v64.6H985z"/>
	<path fill="#30ABE9" d="M1029.7,291.1l9.3-14.4c7.6,8.6,17.1,11.8,29.3,11.8c13.1,0,27.2-6.1,27.2-25.7v-10.5
		c-7,9.3-17.5,15.4-29.5,15.4c-23.4,0-40.7-16.9-40.7-47.1c0-29.8,16.9-47.1,40.7-47.1c11.6,0,22,5.1,29.5,15v-12.7h20v87
		c0,33.1-24.7,42-47.1,42C1052.6,304.7,1041.1,301.3,1029.7,291.1z M1095.4,237.7v-34.4c-4.6-6.7-14.2-12.2-23.6-12.2
		c-16,0-26,11.8-26,29.5s10.1,29.3,26,29.3C1081.1,249.8,1090.8,244.3,1095.4,237.7z"/>
</g>
<g>
	<path fill="#BDE3F8" d="M112.6,277.9l-8.6-11.1l-12,9.3c-2-22.7-4.6-39-4.8-40.3l-13.8,2.2c0,0.3,2.9,18,4.9,42.3
		c-11.7-5.4-20.3-8.5-21-8.7L52.7,285c0.2,0.1,7.8,2.8,18.3,7.6l-15.8,12.3l8.6,11.1l16-12.5c0.5,11.9,0.7,24.4,0.2,36.7l14,0.6
		c0.5-12.3,0.4-24.7-0.1-36.4c4.9,2.8,9.8,5.9,14.4,9.2l8.1-11.4c-6.2-4.4-12.8-8.5-19.3-12L112.6,277.9z"/>
	<path fill="#BDE3F8" d="M425.7,63.5L423,57l-2.7-6.4c-0.6,0.2-7.7,3.3-18,9.7c-0.2-20,0.4-34.7,0.4-35l-14-0.5
		c0,1.3-0.7,18.4-0.4,40.8c-10.6-6.7-16.1-11.2-16.2-11.3l-4.5,5.4l-4.5,5.4c0.4,0.4,5.9,4.9,16.5,11.7c-4.5,3.8-9.1,8-13.7,12.7
		l10,9.8c4.3-4.4,8.6-8.4,12.9-11.9c0.5,11.7,1.3,23.8,2.5,35.1l13.9-1.5c-1.1-9.8-1.8-20.3-2.3-30.6c6.3,3.3,13.3,6.8,21,10.4
		l5.8-12.7c-9.5-4.4-17.9-8.6-25.1-12.6C416.8,67.3,425.6,63.5,425.7,63.5z"/>
	<path fill="#BDE3F8" d="M310,11.9c-2.2,0-4.4,0.9-6,2.5c-1.6,1.6-2.5,3.8-2.5,6c0,2.2,0.9,4.4,2.5,6c1.6,1.6,3.8,2.5,6,2.5
		c2.2,0,4.4-0.9,6-2.5c1.6-1.6,2.5-3.8,2.5-6c0-2.2-0.9-4.4-2.5-6C314.4,12.8,312.2,11.9,310,11.9z"/>
	<path fill="#BDE3F8" d="M484.3,103.7c-1.6-1.6-3.8-2.5-6-2.5c-2.2,0-4.4,0.9-6,2.5c-1.6,1.6-2.5,3.8-2.5,6s0.9,4.4,2.5,6
		c1.6,1.6,3.8,2.5,6,2.5c2.2,0,4.4-0.9,6-2.5c1.6-1.6,2.5-3.8,2.5-6S485.9,105.3,484.3,103.7z"/>
	<path fill="#BDE3F8" d="M13,166.5c-2.2,0-4.4,0.9-6,2.5c-1.6,1.6-2.5,3.8-2.5,6c0,2.2,0.9,4.4,2.5,6c1.6,1.6,3.8,2.5,6,2.5
		c2.2,0,4.4-0.9,6-2.5c1.6-1.6,2.5-3.8,2.5-6c0-2.2-0.9-4.4-2.5-6C17.4,167.4,15.2,166.5,13,166.5z"/>
	<path fill="#BDE3F8" d="M141.7,368.5c-2.2,0-4.4,0.9-6,2.5c-1.6,1.6-2.5,3.8-2.5,6c0,2.2,0.9,4.4,2.5,6c1.6,1.6,3.8,2.5,6,2.5
		c2.2,0,4.4-0.9,6-2.5c1.6-1.6,2.5-3.8,2.5-6c0-2.2-0.9-4.4-2.5-6C146.1,369.4,143.9,368.5,141.7,368.5z"/>
</g>
</svg>
